<?xml version="1.0" standalone="no"?>
<!DOCTYPE svg PUBLIC "-//W3C//DTD SVG 20010904//EN"
 "http://www.w3.org/TR/2001/REC-SVG-20010904/DTD/svg10.dtd">
<svg version="1.0" xmlns="http://www.w3.org/2000/svg"
 width="700.000000pt" height="700.000000pt" viewBox="0 0 700.000000 700.000000"
 preserveAspectRatio="xMidYMid meet">
<metadata>
Created by potrace 1.11, written by Peter Selinger 2001-2013
</metadata>
<g transform="translate(0.000000,700.000000) scale(0.100000,-0.100000)"
fill="#000000" stroke="none">
<path d="M1675 6689 c-104 -12 -305 -62 -406 -101 -673 -257 -1179 -933 -1260
-1683 -16 -147 -6 -441 21 -620 95 -639 391 -1266 894 -1894 267 -334 624
-694 1006 -1015 442 -372 981 -746 1477 -1025 l93 -52 92 52 c518 291 1097
700 1593 1125 181 155 602 573 744 739 588 689 928 1360 1035 2045 40 256 44
544 11 750 -60 372 -230 736 -479 1028 -385 454 -946 698 -1499 653 -463 -37
-869 -222 -1187 -541 -99 -98 -226 -259 -276 -349 -16 -28 -31 -51 -34 -51 -3
0 -18 23 -34 51 -49 89 -177 249 -276 349 -337 339 -794 535 -1270 545 -91 2
-201 0 -245 -6z"/>
</g>
</svg>
