<svg aria-hidden="true" style="position: absolute; width: 0; height: 0; overflow: hidden;" version="1.1" xmlns="http://www.w3.org/2000/svg" xmlns:xlink="http://www.w3.org/1999/xlink">
<defs>
<symbol id="icon-cancel" viewBox="0 0 32 32">
<path d="M27.314 4.686c-6.249-6.249-16.38-6.249-22.627 0-6.249 6.249-6.249 16.38 0 22.627 6.247 6.249 16.378 6.249 22.627-0 6.249-6.247 6.249-16.378 0-22.627zM25.428 25.428c-5.207 5.207-13.65 5.207-18.856 0-5.207-5.206-5.207-13.649-0-18.856 5.206-5.207 13.648-5.207 18.856 0s5.207 13.65 0 18.856z"></path>
<path d="M22.599 9.4c-0.521-0.521-1.365-0.521-1.886 0l-4.714 4.714-4.714-4.714c-0.521-0.521-1.365-0.521-1.886 0s-0.521 1.365 0 1.886l4.714 4.714-4.712 4.712c-0.521 0.521-0.521 1.365 0 1.886s1.365 0.521 1.886 0l4.712-4.712 4.714 4.714c0.521 0.521 1.365 0.521 1.886 0s0.521-1.365 0-1.886l-4.714-4.714 4.714-4.714c0.521-0.521 0.521-1.365 0-1.886z"></path>
</symbol>
</defs>
</svg>
