<svg aria-hidden="true" style="position: absolute; width: 0; height: 0; overflow: hidden;" version="1.1" xmlns="http://www.w3.org/2000/svg" xmlns:xlink="http://www.w3.org/1999/xlink">
<defs>
<symbol id="icon-made_close" viewBox="0 0 32 32">
<path d="M12 2.667c5.155 0 9.333 4.179 9.333 9.333v0c0 2-0.667 4-1.853 5.587l1.067 1.080h0.787l8 8-2.667 2.667-8-8v-0.787l-1.080-1.067c-1.587 1.187-3.587 1.853-5.587 1.853-5.155 0-9.333-4.179-9.333-9.333v0c0-5.155 4.179-9.333 9.333-9.333v0zM14.827 7.28l-2.827 2.84-2.827-2.84-1.893 1.893 2.84 2.827-2.84 2.827 1.893 1.893 2.827-2.84 2.827 2.84 1.893-1.893-2.84-2.827 2.84-2.827-1.893-1.893z"></path>
</symbol>
</defs>
</svg>
