<svg aria-hidden="true" style="position:absolute;width:0;height:0" xmlns="http://www.w3.org/2000/svg" overflow="hidden">
  <defs>
    <symbol id="icon-quotes" viewBox="0 0 43 32">
    <path d="M32.014 0c1.928 0 3.75 0.52 5.464 1.561s3.107 2.537 4.178 4.488c1.029 1.951 1.543 4.25 1.543 6.894s-0.643 5.225-1.928 7.74c-0.429 0.91-1.2 2.081-2.315 3.512-1.157 1.43-2.228 2.666-3.214 3.707l-4.050 4.098-2.893-4.813c2.063-1.302 3.824-2.855 5.306-4.646l0.030-0.037c1.542-1.821 2.314-3.49 2.314-5.008 0-0.781-0.171-1.41-0.514-1.886-1.5 1.084-3.172 1.626-5.014 1.626-1.328 0-2.593-0.412-3.793-1.236-1.237-0.782-2.237-1.834-2.935-3.078l-0.022-0.043c-0.771-1.258-1.157-2.558-1.157-3.902 0-1.518 0.45-2.97 1.35-4.358 0.866-1.389 2.011-2.526 3.364-3.356l0.044-0.025c1.37-0.824 2.784-1.236 4.242-1.236zM8.936 0c1.928 0 3.75 0.52 5.464 1.561s3.107 2.536 4.178 4.488c1.029 1.951 1.543 4.25 1.543 6.894 0 1.864-0.236 3.534-0.707 5.008-0.472 1.518-1.286 3.1-2.443 4.748-1.114 1.561-2.164 2.862-3.15 3.902-0.986 1.084-2.7 2.883-5.143 5.398l-2.893-4.813c2.063-1.302 3.824-2.855 5.306-4.646l0.030-0.037c1.542-1.821 2.314-3.49 2.314-5.008 0-0.781-0.172-1.41-0.514-1.886-1.5 1.084-3.172 1.626-5.014 1.626-1.328 0-2.593-0.412-3.793-1.236-1.237-0.782-2.237-1.834-2.935-3.078l-0.022-0.043c-0.771-1.258-1.157-2.558-1.157-3.902 0-1.518 0.429-2.97 1.286-4.358 0.866-1.389 2.011-2.526 3.364-3.356l0.045-0.025c1.37-0.824 2.784-1.236 4.242-1.236z"></path>
    </symbol>
    <symbol id="icon-github" viewBox="0 0 32 32">
      <path d="M16 .941C7.729.941.941 7.729.941 16c0 7.058 4.953 13.47 11.529 15.059v-4.982c-.652.143-1.251.147-1.915-.049-.89-.263-1.613-.856-2.15-1.76-.342-.577-.949-1.203-1.581-1.157l-.155-1.758c1.368-.117 2.551.833 3.254 2.013.312.525.671.832 1.132.969.446.131.924.068 1.481-.129.14-1.116.651-1.534 1.037-2.122v-.001c-3.922-.585-5.486-2.666-6.106-4.308-.822-2.181-.381-4.905 1.073-6.627.028-.034.079-.121.06-.183-.667-2.014.146-3.679.176-3.856.769.228.894-.229 3.342 1.258l.423.254c.177.105.121.045.298.032a12.77 12.77 0 013.16-.445 12.84 12.84 0 013.204.456l.137.014c-.012-.002.037-.009.12-.058 3.057-1.852 2.947-1.247 3.767-1.513.03.177.831 1.87.172 3.858-.089.274 2.65 2.782 1.132 6.809-.62 1.643-2.184 3.724-6.106 4.309v.001c.503.766 1.107 1.174 1.104 2.755v6.219c6.577-1.589 11.529-8.001 11.529-15.059C31.058 7.728 24.271.94 15.999.94z"/>
    </symbol>
    <symbol id="icon-telegram" viewBox="0 0 40 32">
      <path d="M16.205 20.751l-.635 8.339c.909 0 1.302-.364 1.774-.802l4.261-3.801 8.829 6.035c1.619.842 2.76.399 3.197-1.39l5.797-25.346c.514-2.234-.866-3.108-2.443-2.56L2.92 13.398c-2.325.842-2.29 2.052-.395 2.6l8.709 2.528L31.463 6.712c.952-.588 1.818-.263 1.106.326L16.205 20.751z"/>
    </symbol>
    <symbol id="icon-facebook" viewBox="0 0 16 32">
      <path d="M14.266 15.97H10.09v15.39H3.763V15.97H.754v-5.409h3.009v-3.5c0-2.503 1.182-6.422 6.384-6.422l4.687.02v5.25h-3.401c-.558 0-1.342.28-1.342 1.474v3.183h4.729l-.553 5.403z"/>
    </symbol>
    <symbol id="icon-close" viewBox="0 0 32 32">
      <path d="M18.932 16.026l12.46-12.461c.811-.811.811-2.121 0-2.932s-2.121-.81-2.931 0L16 13.094 3.54.633A2.073 2.073 0 10.608 3.565l12.46 12.461L.608 28.487a2.07 2.07 0 000 2.931 2.07 2.07 0 002.932 0L16 18.957l12.461 12.461a2.07 2.07 0 002.932 0 2.07 2.07 0 000-2.931z"/>
    </symbol>
    <symbol id="icon-menu" viewBox="0 0 32 32">
      <path d="M30.667 17.306H1.334a1.333 1.333 0 010-2.666h29.333a1.333 1.333 0 010 2.666zm0-10.223H1.334a1.333 1.333 0 010-2.666h29.333a1.333 1.333 0 010 2.666zm0 20.445H1.334a1.333 1.333 0 010-2.666h29.333a1.333 1.333 0 010 2.666z"/>
    </symbol>
    <symbol id="icon-arrow" viewBox="0 0 32 32">
      <path d="M24.889 14.751L10.649.511C10.32.181 9.88 0 9.411 0s-.908.182-1.238.511L7.124 1.559a1.754 1.754 0 000 2.476l11.958 11.958L7.111 27.964c-.329.33-.511.769-.511 1.238s.182.908.511 1.238l1.049 1.048c.33.33.769.511 1.238.511s.908-.182 1.238-.511L24.89 17.235c.33-.331.511-.772.51-1.242a1.742 1.742 0 00-.51-1.243z"/>
    </symbol>
    <symbol id="icon-long-arrow" viewBox="0 0 32 32">
          <path d="M31.633 15.115l-.001-.001-6.532-6.5a1.25 1.25 0 00-1.764 1.772l4.385 4.364H1.249a1.25 1.25 0 000 2.5h26.472l-4.385 4.364a1.25 1.25 0 001.764 1.772l6.532-6.5.001-.001a1.251 1.251 0 000-1.77z"/>
    </symbol>
    <symbol id="icon-home" viewBox="0 0 32 32">
      <path d="M30.129 15.446a1.42 1.42 0 00-.118-2.051l-.002-.002L16.372 1.624a1.712 1.712 0 00-2.217.026l.002-.002L.476 14.02a1.41 1.41 0 00-.066 2.051l.345.352c.566.586 1.487.655 2.053.155l1.022-.903v13.226a1.478 1.478 0 001.477 1.467h5.356c.812 0 1.471-.656 1.477-1.467v-9.253h6.804v9.253c-.012.812.576 1.467 1.398 1.467h5.662c.812 0 1.471-.656 1.477-1.467V15.862l.633.546c.347.3 1.078.059 1.63-.542l.389-.418z"/>
    </symbol>
    <symbol id="icon-cross" viewBox="0 0 32 32">
      <path d="M32 3.223L28.777 0 16 12.777 3.223 0 0 3.223 12.777 16 0 28.777 3.223 32 16 19.223 28.777 32 32 28.777 19.223 16 32 3.223z"/>
    </symbol>
    <symbol id="icon-ice-cream" viewBox="0 0 32 32">
<path d="M23.161 10.563c-0.294-0.914-1.070-1.512-2.162-1.689 0.299-0.546 0.504-1.378 0.238-2.303-0.45-1.562-1.945-1.583-2.757-1.589 0.343-0.66 0.68-1.703 0.441-2.742-0.164-0.714-0.694-1.649-2.284-2.049-0.95-0.239-1.952-0.203-2.466-0.16-0.251 0.021-0.454 0.216-0.482 0.463-0.029 0.25 0.12 0.479 0.363 0.558 0.369 0.119 0.834 0.373 0.958 0.903 0.15 0.645-0.064 1.554-3.077 2.875-1.020 0.447-1.644 1.079-1.855 1.878-0.248 0.94 0.144 1.865 0.531 2.491-0.322 0.090-0.688 0.242-1.017 0.474-0.649 0.456-0.994 1.095-0.998 1.847-0.005 0.936 0.306 1.561 0.676 1.972-0.059 0.114-0.093 0.242-0.093 0.378v0.608c0 1.111 0.755 2.049 1.779 2.329l0.668 2.49c0 0 0 0 0 0l2.184 8.144c0 0 0 0 0 0.001l0.984 3.67c0.143 0.531 0.608 0.888 1.158 0.888s1.016-0.357 1.158-0.889l3.837-14.305c1.024-0.28 1.779-1.218 1.779-2.329v-0.608c0-0.132-0.032-0.256-0.087-0.366 0.535-0.542 0.998-1.466 0.523-2.94zM16.204 30.869c-0.047 0.175-0.192 0.194-0.252 0.194s-0.206-0.019-0.253-0.194l-0.732-2.731c0.587 0.247 1.183 0.48 1.783 0.696zM17.783 24.978c-0.139-0.052-0.278-0.104-0.414-0.156-0.242-0.093-0.513 0.028-0.606 0.269s0.027 0.513 0.269 0.606c0.167 0.064 0.337 0.128 0.507 0.19l-0.546 2.037c-0.792-0.287-1.575-0.603-2.337-0.942l-0.713-2.66c0.338 0.172 0.679 0.339 1.021 0.498 0.064 0.030 0.132 0.044 0.198 0.044 0.177 0 0.346-0.1 0.425-0.271 0.109-0.235 0.008-0.514-0.227-0.623-0.59-0.275-1.177-0.572-1.748-0.883l-0.761-2.836c1.706 1.084 3.54 1.995 5.472 2.717zM18.566 22.058c-2.173-0.819-4.216-1.886-6.082-3.175l-0.534-1.991h1.196c1.804 1.298 3.803 2.37 5.95 3.19zM19.341 19.17c-1.602-0.618-3.117-1.382-4.524-2.279h5.135zM21.741 13.044h-7.904c-0.259 0-0.469 0.21-0.469 0.469s0.21 0.469 0.469 0.469h7.95v0.496c0 0.747-0.558 1.366-1.28 1.463-0 0-0 0-0.001 0-0.033 0.004-0.066 0.008-0.098 0.010-0.001 0-0.002 0-0.003 0-0.032 0.002-0.064 0.003-0.095 0.003h-8.72c-0.031 0-0.063-0.001-0.095-0.003-0.001 0-0.002-0-0.003-0-0.032-0.002-0.064-0.005-0.097-0.010-0.001-0-0.001 0-0.001-0-0.721-0.096-1.28-0.716-1.28-1.463v-0.496h1.525c0.259 0 0.469-0.21 0.469-0.469s-0.21-0.469-0.469-0.469h-1.484c-0.418-0.334-0.629-0.845-0.625-1.52 0.006-1.069 1.215-1.439 1.638-1.485 0.020-0.002 0.039-0.006 0.058-0.010 0.189 0.232 0.404 0.482 0.571 0.639 0.091 0.085 0.206 0.127 0.321 0.127 0.125 0 0.249-0.050 0.342-0.148 0.177-0.189 0.168-0.486-0.021-0.663-0.255-0.239-0.731-0.852-0.9-1.076-0.288-0.415-0.75-1.229-0.556-1.962 0.134-0.508 0.58-0.932 1.325-1.258 1.915-0.84 4.056-2.047 3.614-3.947-0.073-0.313-0.207-0.569-0.37-0.778 1.017 0.085 2.209 0.419 2.455 1.487 0.199 0.865-0.158 1.751-0.422 2.214-0.181 0.3-0.772 1.123-1.376 1.403-0.235 0.109-0.337 0.388-0.228 0.623 0.079 0.171 0.249 0.271 0.426 0.271 0.066 0 0.133-0.014 0.197-0.044 0.492-0.229 0.928-0.653 1.246-1.030 0.013 0.002 0.026 0.006 0.039 0.007 0.17 0.022 0.365 0.023 0.571 0.025 0.947 0.008 1.636 0.078 1.876 0.911 0.201 0.699 0.006 1.315-0.19 1.646-0.097 0.131-0.636 0.839-1.333 1.411-0.2 0.164-0.229 0.46-0.065 0.66 0.093 0.113 0.227 0.172 0.363 0.172 0.105 0 0.21-0.035 0.297-0.106 0.349-0.286 0.658-0.598 0.905-0.87 0.041 0.009 0.082 0.015 0.125 0.017 0.683 0.025 1.555 0.235 1.831 1.090 0.317 0.985 0.145 1.704-0.528 2.193z"></path>
</symbol>
<symbol id="icon-ice-cream-one" viewBox="0 0 32 32">
<path fill="#f0b4a3" style="fill: var(--color1, #f0b4a3)" d="M5.093 0.51l-1.569 0.906c-0.15 0.086-0.201 0.278-0.115 0.427l7.848 13.593c0.086 0.15 0.278 0.201 0.427 0.114l1.569-0.906c0.15-0.086 0.201-0.278 0.114-0.427l-7.848-13.593c-0.086-0.15-0.278-0.201-0.427-0.115z"></path>
<path fill="#fdeaaf" style="fill: var(--color2, #fdeaaf)" d="M22.362 8.261c0 3.514-2.848 6.362-6.362 6.362s-6.362-2.848-6.362-6.362c0-3.514 2.848-6.362 6.362-6.362s6.362 2.848 6.362 6.362z"></path>
<path fill="#f8cc7c" style="fill: var(--color3, #f8cc7c)" d="M16 1.9c-0.142 0-0.282 0.005-0.422 0.014 2.935 0.217 5.257 2.976 5.257 6.348s-2.321 6.131-5.257 6.348c0.139 0.009 0.28 0.014 0.422 0.014 3.514 0 6.362-2.848 6.362-6.362s-2.848-6.362-6.362-6.362z"></path>
<path fill="#b78358" style="fill: var(--color4, #b78358)" d="M17.308 15.797c0 1.176-0.319 2.279-0.877 3.224-0.131 0.222-0.275 0.436-0.431 0.64-0.156-0.204-0.3-0.418-0.431-0.64h-10.108c-0.558-0.946-0.877-2.048-0.877-3.224 0-3.514 2.848-6.362 6.362-6.362 2.060 0 3.892 0.979 5.054 2.498 0.821 1.072 1.308 2.411 1.308 3.864z"></path>
<path fill="#935d38" style="fill: var(--color5, #935d38)" d="M16 11.933c-1.162-1.518-2.994-2.498-5.054-2.498-0.19 0-0.378 0.009-0.564 0.025 1.528 0.162 2.87 1.095 3.752 2.473 0.687 1.072 1.094 2.411 1.094 3.864 0 1.176-0.267 2.279-0.734 3.224h1.073c0.131 0.222 0.275 0.436 0.431 0.64 0.156-0.204 0.3-0.418 0.431-0.64 0.558-0.946 0.877-2.048 0.877-3.224 0-1.453-0.487-2.793-1.308-3.864z"></path>
<path fill="#e6eff5" style="fill: var(--color6, #e6eff5)" d="M3.367 19.021v0c0 0.634 0.514 1.147 1.147 1.147h22.971c0.634 0 1.147-0.514 1.147-1.147v0c0-0.634-0.514-1.147-1.147-1.147h-22.971c-0.634 0-1.147 0.514-1.147 1.147z"></path>
<path fill="#cdd6de" style="fill: var(--color7, #cdd6de)" d="M27.485 17.874h-1.567c0.634 0 1.147 0.514 1.147 1.147v0c0 0.634-0.514 1.147-1.147 1.147h1.567c0.634 0 1.147-0.514 1.147-1.147v0c0-0.634-0.514-1.147-1.147-1.147z"></path>
<path fill="#80b9f9" style="fill: var(--color8, #80b9f9)" d="M23.339 31.531h-14.679c-0.621 0-1.157-0.436-1.283-1.045l-2.131-10.318h21.506l-2.131 10.318c-0.126 0.608-0.662 1.045-1.283 1.045z"></path>
<path fill="#3185db" style="fill: var(--color9, #3185db)" d="M25.169 20.168l-2.131 10.318c-0.126 0.608-0.662 1.045-1.283 1.045h1.583c0.621 0 1.157-0.436 1.283-1.045l2.131-10.318h-1.583z"></path>
<path fill="#e6eff5" style="fill: var(--color6, #e6eff5)" d="M25.202 27.68l0.825-3.992h-20.052l0.824 3.992z"></path>
<path fill="#cdd6de" style="fill: var(--color7, #cdd6de)" d="M23.618 27.68h1.583l0.825-3.992h-1.583z"></path>
<path fill="#ee81a7" style="fill: var(--color10, #ee81a7)" d="M27.416 15.797c0-3.514-2.848-6.361-6.362-6.361-2.060 0-3.891 0.979-5.054 2.498-0.821 1.071-1.308 2.411-1.308 3.864 0 0.727 0.122 1.426 0.347 2.077h3.086v3.829c0 0.509 0.413 0.922 0.922 0.922s0.922-0.413 0.922-0.922v-0.613c0-0.509 0.413-0.922 0.922-0.922s0.922 0.413 0.922 0.922v2.55c0 0.509 0.413 0.922 0.922 0.922s0.922-0.413 0.922-0.922v-5.767h3.413c0.225-0.651 0.347-1.35 0.347-2.077z"></path>
<path fill="#ea6c9d" style="fill: var(--color11, #ea6c9d)" d="M21.054 9.435c-0.14 0-0.278 0.005-0.415 0.014 2.915 0.213 5.221 2.973 5.221 6.348 0 0.727-0.107 1.426-0.304 2.077h1.514c0.225-0.651 0.347-1.35 0.347-2.077 0-3.514-2.848-6.361-6.362-6.361z"></path>
<path fill="#000" style="fill: var(--color12, #000)" d="M13.36 4.551c-0.259 0-0.469 0.21-0.469 0.469v0.43c0 0.259 0.21 0.469 0.469 0.469s0.469-0.21 0.469-0.469v-0.43c0-0.259-0.21-0.469-0.469-0.469z"></path>
<path fill="#000" style="fill: var(--color12, #000)" d="M16 4.551c-0.259 0-0.469 0.21-0.469 0.469v0.43c0 0.259 0.21 0.469 0.469 0.469s0.469-0.21 0.469-0.469v-0.43c0-0.259-0.21-0.469-0.469-0.469z"></path>
<path fill="#000" style="fill: var(--color12, #000)" d="M18.64 4.551c-0.259 0-0.469 0.21-0.469 0.469v0.43c0 0.259 0.21 0.469 0.469 0.469s0.469-0.21 0.469-0.469v-0.43c0-0.259-0.21-0.469-0.469-0.469z"></path>
<path fill="#000" style="fill: var(--color12, #000)" d="M14.68 6.858c-0.259 0-0.469 0.21-0.469 0.469v0.43c0 0.259 0.21 0.469 0.469 0.469s0.469-0.21 0.469-0.469v-0.43c0-0.259-0.21-0.469-0.469-0.469z"></path>
<path fill="#000" style="fill: var(--color12, #000)" d="M17.32 6.858c-0.259 0-0.469 0.21-0.469 0.469v0.43c0 0.259 0.21 0.469 0.469 0.469s0.469-0.21 0.469-0.469v-0.43c0-0.259-0.21-0.469-0.469-0.469z"></path>
<path fill="#000" style="fill: var(--color12, #000)" d="M27.689 17.418c0.129-0.528 0.195-1.071 0.195-1.622 0-3.174-2.177-5.85-5.116-6.612 0.041-0.305 0.062-0.614 0.062-0.923 0-3.767-3.064-6.831-6.831-6.831-3.135 0-5.783 2.123-6.583 5.006l-3.491-6.047c-0.215-0.372-0.694-0.501-1.068-0.286l-1.569 0.906c-0.373 0.215-0.501 0.694-0.286 1.068l4.511 7.813c-0.583 0.339-1.111 0.759-1.574 1.257-0.176 0.19-0.165 0.486 0.024 0.662s0.486 0.165 0.662-0.024c0.498-0.536 1.083-0.97 1.74-1.29 0.471-0.23 0.971-0.395 1.486-0.492 0.196-0.036 0.393-0.063 0.589-0.080 0.065-0.005 0.13-0.010 0.194-0.013 0 0 0 0 0 0s0 0 0 0c0.106-0.005 0.21-0.008 0.31-0.008 1.734 0 3.343 0.741 4.464 2.046-0.777 1.135-1.187 2.457-1.187 3.847 0 0.098 0.002 0.196 0.006 0.293 0.011 0.259 0.229 0.46 0.488 0.448s0.459-0.23 0.448-0.488c-0.004-0.083-0.005-0.168-0.005-0.253 0-1.307 0.419-2.544 1.212-3.579 1.125-1.47 2.832-2.314 4.682-2.314 3.25 0 5.893 2.643 5.893 5.893 0 0.548-0.075 1.088-0.222 1.608h-2.6v-1.030c0-0.259-0.21-0.469-0.469-0.469s-0.469 0.21-0.469 0.469v7.266c0 0.25-0.203 0.453-0.453 0.453s-0.453-0.203-0.453-0.453v-2.55c0-0.767-0.624-1.391-1.391-1.391s-1.391 0.624-1.391 1.391v0.613c0 0.25-0.203 0.453-0.453 0.453s-0.453-0.203-0.453-0.453v-3.829c0-0.259-0.21-0.469-0.469-0.469l-12.849 0c-0.147-0.521-0.223-1.060-0.223-1.608 0-0.898 0.197-1.761 0.586-2.564 0.113-0.233 0.015-0.513-0.218-0.626s-0.513-0.015-0.626 0.218c-0.451 0.931-0.679 1.931-0.679 2.972 0 0.55 0.066 1.093 0.195 1.622-0.795 0.101-1.412 0.781-1.412 1.603 0 0.891 0.725 1.616 1.616 1.616h0.351l0.649 3.143c0 0.001 0 0.002 0.001 0.003l1.404 6.797c0.17 0.822 0.902 1.419 1.742 1.419h14.679c0.84 0 1.572-0.597 1.742-1.419l0.579-2.805c0-0.001 0.001-0.003 0.001-0.004l0.824-3.989c0-0.001 0-0.002 0.001-0.003l0.649-3.143h0.351c0.891 0 1.616-0.725 1.616-1.616-0-0.822-0.617-1.502-1.412-1.602zM9.038 9.237c-0.008 0.002-0.017 0.005-0.025 0.007-0.065 0.019-0.13 0.040-0.195 0.061-0.019 0.006-0.038 0.013-0.057 0.019-0.047 0.016-0.094 0.032-0.141 0.049-0.021 0.008-0.042 0.015-0.062 0.023-0.052 0.020-0.105 0.040-0.156 0.061-0.012 0.005-0.024 0.009-0.036 0.014-0.003 0.001-0.006 0.002-0.009 0.004l-0.070-0.121 0.866-1.5 0.026 0.046c-0.006 0.12-0.010 0.241-0.010 0.362 0 0.309 0.021 0.617 0.062 0.922-0.007 0.002-0.013 0.004-0.020 0.005-0.058 0.015-0.116 0.031-0.174 0.048zM6.839 6.847l0.866-1.5 0.906 1.569-0.866 1.5-0.906-1.569zM5.392 4.341l0.866-1.5 0.906 1.569-0.866 1.5-0.906-1.569zM5.192 0.994l0.525 0.909-0.866 1.5-0.958-1.659 1.3-0.75zM16 11.202c-1.293-1.427-3.105-2.235-5.054-2.235-0.115 0-0.236 0.003-0.357 0.009-0.144 0.007-0.289 0.020-0.435 0.036-0.031-0.248-0.047-0.499-0.047-0.751 0-3.25 2.644-5.893 5.893-5.893s5.893 2.644 5.893 5.893c0 0.252-0.016 0.503-0.047 0.751-0.26-0.030-0.524-0.046-0.792-0.046-1.949-0-3.761 0.808-5.054 2.235zM3.836 19.021c0-0.374 0.304-0.678 0.678-0.678l13.142-0v1.357h-12.409c-0.001 0-0.001 0-0.002 0h-0.731c-0.374 0-0.678-0.304-0.678-0.678zM24.163 30.392c-0.080 0.389-0.427 0.671-0.824 0.671h-14.679c-0.397 0-0.744-0.282-0.824-0.671l-1.288-6.235h13.339c0.259 0 0.469-0.21 0.469-0.469s-0.21-0.469-0.469-0.469h-13.533l-0.533-2.582h11.834v1.066c0 0.767 0.624 1.391 1.391 1.391s1.391-0.624 1.391-1.391v-0.613c0-0.25 0.203-0.453 0.453-0.453s0.453 0.203 0.453 0.453v2.55c0 0.767 0.624 1.391 1.391 1.391 0.585 0 1.086-0.363 1.291-0.875h1.425l-0.631 3.055h-16.078c-0.259 0-0.469 0.21-0.469 0.469s0.21 0.469 0.469 0.469h15.884l-0.463 2.243zM25.644 23.219h-1.519v-2.582h2.052l-0.533 2.582zM27.485 19.7h-0.731c-0.001 0-0.002 0-0.003 0h-2.627v-1.357h3.36c0.374 0 0.678 0.304 0.678 0.678s-0.304 0.678-0.678 0.678z"></path>
</symbol>
  </defs>
</svg>