<svg aria-hidden="true" style="position:absolute;width:0;height:0" xmlns="http://www.w3.org/2000/svg" overflow="hidden">
  <defs>
    <symbol id="icon-quotes" viewBox="0 0 43 32">
    <path d="M32.014 0c1.928 0 3.75 0.52 5.464 1.561s3.107 2.537 4.178 4.488c1.029 1.951 1.543 4.25 1.543 6.894s-0.643 5.225-1.928 7.74c-0.429 0.91-1.2 2.081-2.315 3.512-1.157 1.43-2.228 2.666-3.214 3.707l-4.050 4.098-2.893-4.813c2.063-1.302 3.824-2.855 5.306-4.646l0.030-0.037c1.542-1.821 2.314-3.49 2.314-5.008 0-0.781-0.171-1.41-0.514-1.886-1.5 1.084-3.172 1.626-5.014 1.626-1.328 0-2.593-0.412-3.793-1.236-1.237-0.782-2.237-1.834-2.935-3.078l-0.022-0.043c-0.771-1.258-1.157-2.558-1.157-3.902 0-1.518 0.45-2.97 1.35-4.358 0.866-1.389 2.011-2.526 3.364-3.356l0.044-0.025c1.37-0.824 2.784-1.236 4.242-1.236zM8.936 0c1.928 0 3.75 0.52 5.464 1.561s3.107 2.536 4.178 4.488c1.029 1.951 1.543 4.25 1.543 6.894 0 1.864-0.236 3.534-0.707 5.008-0.472 1.518-1.286 3.1-2.443 4.748-1.114 1.561-2.164 2.862-3.15 3.902-0.986 1.084-2.7 2.883-5.143 5.398l-2.893-4.813c2.063-1.302 3.824-2.855 5.306-4.646l0.030-0.037c1.542-1.821 2.314-3.49 2.314-5.008 0-0.781-0.172-1.41-0.514-1.886-1.5 1.084-3.172 1.626-5.014 1.626-1.328 0-2.593-0.412-3.793-1.236-1.237-0.782-2.237-1.834-2.935-3.078l-0.022-0.043c-0.771-1.258-1.157-2.558-1.157-3.902 0-1.518 0.429-2.97 1.286-4.358 0.866-1.389 2.011-2.526 3.364-3.356l0.045-0.025c1.37-0.824 2.784-1.236 4.242-1.236z"></path>
    </symbol>
    <symbol id="icon-github" viewBox="0 0 32 32">
      <path d="M16 .941C7.729.941.941 7.729.941 16c0 7.058 4.953 13.47 11.529 15.059v-4.982c-.652.143-1.251.147-1.915-.049-.89-.263-1.613-.856-2.15-1.76-.342-.577-.949-1.203-1.581-1.157l-.155-1.758c1.368-.117 2.551.833 3.254 2.013.312.525.671.832 1.132.969.446.131.924.068 1.481-.129.14-1.116.651-1.534 1.037-2.122v-.001c-3.922-.585-5.486-2.666-6.106-4.308-.822-2.181-.381-4.905 1.073-6.627.028-.034.079-.121.06-.183-.667-2.014.146-3.679.176-3.856.769.228.894-.229 3.342 1.258l.423.254c.177.105.121.045.298.032a12.77 12.77 0 013.16-.445 12.84 12.84 0 013.204.456l.137.014c-.012-.002.037-.009.12-.058 3.057-1.852 2.947-1.247 3.767-1.513.03.177.831 1.87.172 3.858-.089.274 2.65 2.782 1.132 6.809-.62 1.643-2.184 3.724-6.106 4.309v.001c.503.766 1.107 1.174 1.104 2.755v6.219c6.577-1.589 11.529-8.001 11.529-15.059C31.058 7.728 24.271.94 15.999.94z"/>
    </symbol>
    <symbol id="icon-telegram" viewBox="0 0 40 32">
      <path d="M16.205 20.751l-.635 8.339c.909 0 1.302-.364 1.774-.802l4.261-3.801 8.829 6.035c1.619.842 2.76.399 3.197-1.39l5.797-25.346c.514-2.234-.866-3.108-2.443-2.56L2.92 13.398c-2.325.842-2.29 2.052-.395 2.6l8.709 2.528L31.463 6.712c.952-.588 1.818-.263 1.106.326L16.205 20.751z"/>
    </symbol>
    <symbol id="icon-facebook" viewBox="0 0 16 32">
      <path d="M14.266 15.97H10.09v15.39H3.763V15.97H.754v-5.409h3.009v-3.5c0-2.503 1.182-6.422 6.384-6.422l4.687.02v5.25h-3.401c-.558 0-1.342.28-1.342 1.474v3.183h4.729l-.553 5.403z"/>
    </symbol>
    <symbol id="icon-close" viewBox="0 0 32 32">
      <path d="M18.932 16.026l12.46-12.461c.811-.811.811-2.121 0-2.932s-2.121-.81-2.931 0L16 13.094 3.54.633A2.073 2.073 0 10.608 3.565l12.46 12.461L.608 28.487a2.07 2.07 0 000 2.931 2.07 2.07 0 002.932 0L16 18.957l12.461 12.461a2.07 2.07 0 002.932 0 2.07 2.07 0 000-2.931z"/>
    </symbol>
    <symbol id="icon-menu" viewBox="0 0 32 32">
      <path d="M30.667 17.306H1.334a1.333 1.333 0 010-2.666h29.333a1.333 1.333 0 010 2.666zm0-10.223H1.334a1.333 1.333 0 010-2.666h29.333a1.333 1.333 0 010 2.666zm0 20.445H1.334a1.333 1.333 0 010-2.666h29.333a1.333 1.333 0 010 2.666z"/>
    </symbol>
    <symbol id="icon-arrow" viewBox="0 0 32 32">
      <path d="M24.889 14.751L10.649.511C10.32.181 9.88 0 9.411 0s-.908.182-1.238.511L7.124 1.559a1.754 1.754 0 000 2.476l11.958 11.958L7.111 27.964c-.329.33-.511.769-.511 1.238s.182.908.511 1.238l1.049 1.048c.33.33.769.511 1.238.511s.908-.182 1.238-.511L24.89 17.235c.33-.331.511-.772.51-1.242a1.742 1.742 0 00-.51-1.243z"/>
    </symbol>
    <symbol id="icon-long-arrow" viewBox="0 0 32 32">
          <path d="M31.633 15.115l-.001-.001-6.532-6.5a1.25 1.25 0 00-1.764 1.772l4.385 4.364H1.249a1.25 1.25 0 000 2.5h26.472l-4.385 4.364a1.25 1.25 0 001.764 1.772l6.532-6.5.001-.001a1.251 1.251 0 000-1.77z"/>
    </symbol>
    <symbol id="icon-home" viewBox="0 0 32 32">
      <path d="M30.129 15.446a1.42 1.42 0 00-.118-2.051l-.002-.002L16.372 1.624a1.712 1.712 0 00-2.217.026l.002-.002L.476 14.02a1.41 1.41 0 00-.066 2.051l.345.352c.566.586 1.487.655 2.053.155l1.022-.903v13.226a1.478 1.478 0 001.477 1.467h5.356c.812 0 1.471-.656 1.477-1.467v-9.253h6.804v9.253c-.012.812.576 1.467 1.398 1.467h5.662c.812 0 1.471-.656 1.477-1.467V15.862l.633.546c.347.3 1.078.059 1.63-.542l.389-.418z"/>
    </symbol>
    <symbol id="icon-cross" viewBox="0 0 32 32">
      <path d="M32 3.223L28.777 0 16 12.777 3.223 0 0 3.223 12.777 16 0 28.777 3.223 32 16 19.223 28.777 32 32 28.777 19.223 16 32 3.223z"/>
    </symbol>
<symbol id="icon-cancel" viewBox="0 0 32 32">
<path d="M27.314 4.686c-6.249-6.249-16.38-6.249-22.627 0-6.249 6.249-6.249 16.38 0 22.627 6.247 6.249 16.378 6.249 22.627-0 6.249-6.247 6.249-16.378 0-22.627zM25.428 25.428c-5.207 5.207-13.65 5.207-18.856 0-5.207-5.206-5.207-13.649-0-18.856 5.206-5.207 13.648-5.207 18.856 0s5.207 13.65 0 18.856z"></path>
<path d="M22.599 9.4c-0.521-0.521-1.365-0.521-1.886 0l-4.714 4.714-4.714-4.714c-0.521-0.521-1.365-0.521-1.886 0s-0.521 1.365 0 1.886l4.714 4.714-4.712 4.712c-0.521 0.521-0.521 1.365 0 1.886s1.365 0.521 1.886 0l4.712-4.712 4.714 4.714c0.521 0.521 1.365 0.521 1.886 0s0.521-1.365 0-1.886l-4.714-4.714 4.714-4.714c0.521-0.521 0.521-1.365 0-1.886z"></path>
</symbol>

  </defs>
</svg>