<svg aria-hidden="true" style="position:absolute;width:0;height:0" xmlns="http://www.w3.org/2000/svg" overflow="hidden">
  <defs>
    <symbol id="icon-quotes" viewBox="0 0 43 32">
    <path d="M32.014 0c1.928 0 3.75 0.52 5.464 1.561s3.107 2.537 4.178 4.488c1.029 1.951 1.543 4.25 1.543 6.894s-0.643 5.225-1.928 7.74c-0.429 0.91-1.2 2.081-2.315 3.512-1.157 1.43-2.228 2.666-3.214 3.707l-4.050 4.098-2.893-4.813c2.063-1.302 3.824-2.855 5.306-4.646l0.030-0.037c1.542-1.821 2.314-3.49 2.314-5.008 0-0.781-0.171-1.41-0.514-1.886-1.5 1.084-3.172 1.626-5.014 1.626-1.328 0-2.593-0.412-3.793-1.236-1.237-0.782-2.237-1.834-2.935-3.078l-0.022-0.043c-0.771-1.258-1.157-2.558-1.157-3.902 0-1.518 0.45-2.97 1.35-4.358 0.866-1.389 2.011-2.526 3.364-3.356l0.044-0.025c1.37-0.824 2.784-1.236 4.242-1.236zM8.936 0c1.928 0 3.75 0.52 5.464 1.561s3.107 2.536 4.178 4.488c1.029 1.951 1.543 4.25 1.543 6.894 0 1.864-0.236 3.534-0.707 5.008-0.472 1.518-1.286 3.1-2.443 4.748-1.114 1.561-2.164 2.862-3.15 3.902-0.986 1.084-2.7 2.883-5.143 5.398l-2.893-4.813c2.063-1.302 3.824-2.855 5.306-4.646l0.030-0.037c1.542-1.821 2.314-3.49 2.314-5.008 0-0.781-0.172-1.41-0.514-1.886-1.5 1.084-3.172 1.626-5.014 1.626-1.328 0-2.593-0.412-3.793-1.236-1.237-0.782-2.237-1.834-2.935-3.078l-0.022-0.043c-0.771-1.258-1.157-2.558-1.157-3.902 0-1.518 0.429-2.97 1.286-4.358 0.866-1.389 2.011-2.526 3.364-3.356l0.045-0.025c1.37-0.824 2.784-1.236 4.242-1.236z"></path>
    </symbol>
    <symbol id="icon-github" viewBox="0 0 32 32">
      <path d="M16 .941C7.729.941.941 7.729.941 16c0 7.058 4.953 13.47 11.529 15.059v-4.982c-.652.143-1.251.147-1.915-.049-.89-.263-1.613-.856-2.15-1.76-.342-.577-.949-1.203-1.581-1.157l-.155-1.758c1.368-.117 2.551.833 3.254 2.013.312.525.671.832 1.132.969.446.131.924.068 1.481-.129.14-1.116.651-1.534 1.037-2.122v-.001c-3.922-.585-5.486-2.666-6.106-4.308-.822-2.181-.381-4.905 1.073-6.627.028-.034.079-.121.06-.183-.667-2.014.146-3.679.176-3.856.769.228.894-.229 3.342 1.258l.423.254c.177.105.121.045.298.032a12.77 12.77 0 013.16-.445 12.84 12.84 0 013.204.456l.137.014c-.012-.002.037-.009.12-.058 3.057-1.852 2.947-1.247 3.767-1.513.03.177.831 1.87.172 3.858-.089.274 2.65 2.782 1.132 6.809-.62 1.643-2.184 3.724-6.106 4.309v.001c.503.766 1.107 1.174 1.104 2.755v6.219c6.577-1.589 11.529-8.001 11.529-15.059C31.058 7.728 24.271.94 15.999.94z"/>
    </symbol>
    <symbol id="icon-telegram" viewBox="0 0 40 32">
      <path d="M16.205 20.751l-.635 8.339c.909 0 1.302-.364 1.774-.802l4.261-3.801 8.829 6.035c1.619.842 2.76.399 3.197-1.39l5.797-25.346c.514-2.234-.866-3.108-2.443-2.56L2.92 13.398c-2.325.842-2.29 2.052-.395 2.6l8.709 2.528L31.463 6.712c.952-.588 1.818-.263 1.106.326L16.205 20.751z"/>
    </symbol>
    <symbol id="icon-facebook" viewBox="0 0 16 32">
      <path d="M14.266 15.97H10.09v15.39H3.763V15.97H.754v-5.409h3.009v-3.5c0-2.503 1.182-6.422 6.384-6.422l4.687.02v5.25h-3.401c-.558 0-1.342.28-1.342 1.474v3.183h4.729l-.553 5.403z"/>
    </symbol>
    <symbol id="icon-close" viewBox="0 0 32 32">
      <path d="M18.932 16.026l12.46-12.461c.811-.811.811-2.121 0-2.932s-2.121-.81-2.931 0L16 13.094 3.54.633A2.073 2.073 0 10.608 3.565l12.46 12.461L.608 28.487a2.07 2.07 0 000 2.931 2.07 2.07 0 002.932 0L16 18.957l12.461 12.461a2.07 2.07 0 002.932 0 2.07 2.07 0 000-2.931z"/>
    </symbol>
    <symbol id="icon-menu" viewBox="0 0 32 32">
      <path d="M30.667 17.306H1.334a1.333 1.333 0 010-2.666h29.333a1.333 1.333 0 010 2.666zm0-10.223H1.334a1.333 1.333 0 010-2.666h29.333a1.333 1.333 0 010 2.666zm0 20.445H1.334a1.333 1.333 0 010-2.666h29.333a1.333 1.333 0 010 2.666z"/>
    </symbol>
    <symbol id="icon-arrow" viewBox="0 0 32 32">
      <path d="M24.889 14.751L10.649.511C10.32.181 9.88 0 9.411 0s-.908.182-1.238.511L7.124 1.559a1.754 1.754 0 000 2.476l11.958 11.958L7.111 27.964c-.329.33-.511.769-.511 1.238s.182.908.511 1.238l1.049 1.048c.33.33.769.511 1.238.511s.908-.182 1.238-.511L24.89 17.235c.33-.331.511-.772.51-1.242a1.742 1.742 0 00-.51-1.243z"/>
    </symbol>
    <symbol id="icon-long-arrow" viewBox="0 0 32 32">
          <path d="M31.633 15.115l-.001-.001-6.532-6.5a1.25 1.25 0 00-1.764 1.772l4.385 4.364H1.249a1.25 1.25 0 000 2.5h26.472l-4.385 4.364a1.25 1.25 0 001.764 1.772l6.532-6.5.001-.001a1.251 1.251 0 000-1.77z"/>
    </symbol>
    <symbol id="icon-home" viewBox="0 0 32 32">
      <path d="M30.129 15.446a1.42 1.42 0 00-.118-2.051l-.002-.002L16.372 1.624a1.712 1.712 0 00-2.217.026l.002-.002L.476 14.02a1.41 1.41 0 00-.066 2.051l.345.352c.566.586 1.487.655 2.053.155l1.022-.903v13.226a1.478 1.478 0 001.477 1.467h5.356c.812 0 1.471-.656 1.477-1.467v-9.253h6.804v9.253c-.012.812.576 1.467 1.398 1.467h5.662c.812 0 1.471-.656 1.477-1.467V15.862l.633.546c.347.3 1.078.059 1.63-.542l.389-.418z"/>
    </symbol>
    <symbol id="icon-cross" viewBox="0 0 32 32">
      <path d="M32 3.223L28.777 0 16 12.777 3.223 0 0 3.223 12.777 16 0 28.777 3.223 32 16 19.223 28.777 32 32 28.777 19.223 16 32 3.223z"/>
    </symbol>
    <symbol id="icon-ice-cream" viewBox="0 0 32 32">
<path d="M23.161 10.563c-0.294-0.914-1.070-1.512-2.162-1.689 0.299-0.546 0.504-1.378 0.238-2.303-0.45-1.562-1.945-1.583-2.757-1.589 0.343-0.66 0.68-1.703 0.441-2.742-0.164-0.714-0.694-1.649-2.284-2.049-0.95-0.239-1.952-0.203-2.466-0.16-0.251 0.021-0.454 0.216-0.482 0.463-0.029 0.25 0.12 0.479 0.363 0.558 0.369 0.119 0.834 0.373 0.958 0.903 0.15 0.645-0.064 1.554-3.077 2.875-1.020 0.447-1.644 1.079-1.855 1.878-0.248 0.94 0.144 1.865 0.531 2.491-0.322 0.090-0.688 0.242-1.017 0.474-0.649 0.456-0.994 1.095-0.998 1.847-0.005 0.936 0.306 1.561 0.676 1.972-0.059 0.114-0.093 0.242-0.093 0.378v0.608c0 1.111 0.755 2.049 1.779 2.329l0.668 2.49c0 0 0 0 0 0l2.184 8.144c0 0 0 0 0 0.001l0.984 3.67c0.143 0.531 0.608 0.888 1.158 0.888s1.016-0.357 1.158-0.889l3.837-14.305c1.024-0.28 1.779-1.218 1.779-2.329v-0.608c0-0.132-0.032-0.256-0.087-0.366 0.535-0.542 0.998-1.466 0.523-2.94zM16.204 30.869c-0.047 0.175-0.192 0.194-0.252 0.194s-0.206-0.019-0.253-0.194l-0.732-2.731c0.587 0.247 1.183 0.48 1.783 0.696zM17.783 24.978c-0.139-0.052-0.278-0.104-0.414-0.156-0.242-0.093-0.513 0.028-0.606 0.269s0.027 0.513 0.269 0.606c0.167 0.064 0.337 0.128 0.507 0.19l-0.546 2.037c-0.792-0.287-1.575-0.603-2.337-0.942l-0.713-2.66c0.338 0.172 0.679 0.339 1.021 0.498 0.064 0.030 0.132 0.044 0.198 0.044 0.177 0 0.346-0.1 0.425-0.271 0.109-0.235 0.008-0.514-0.227-0.623-0.59-0.275-1.177-0.572-1.748-0.883l-0.761-2.836c1.706 1.084 3.54 1.995 5.472 2.717zM18.566 22.058c-2.173-0.819-4.216-1.886-6.082-3.175l-0.534-1.991h1.196c1.804 1.298 3.803 2.37 5.95 3.19zM19.341 19.17c-1.602-0.618-3.117-1.382-4.524-2.279h5.135zM21.741 13.044h-7.904c-0.259 0-0.469 0.21-0.469 0.469s0.21 0.469 0.469 0.469h7.95v0.496c0 0.747-0.558 1.366-1.28 1.463-0 0-0 0-0.001 0-0.033 0.004-0.066 0.008-0.098 0.010-0.001 0-0.002 0-0.003 0-0.032 0.002-0.064 0.003-0.095 0.003h-8.72c-0.031 0-0.063-0.001-0.095-0.003-0.001 0-0.002-0-0.003-0-0.032-0.002-0.064-0.005-0.097-0.010-0.001-0-0.001 0-0.001-0-0.721-0.096-1.28-0.716-1.28-1.463v-0.496h1.525c0.259 0 0.469-0.21 0.469-0.469s-0.21-0.469-0.469-0.469h-1.484c-0.418-0.334-0.629-0.845-0.625-1.52 0.006-1.069 1.215-1.439 1.638-1.485 0.020-0.002 0.039-0.006 0.058-0.010 0.189 0.232 0.404 0.482 0.571 0.639 0.091 0.085 0.206 0.127 0.321 0.127 0.125 0 0.249-0.050 0.342-0.148 0.177-0.189 0.168-0.486-0.021-0.663-0.255-0.239-0.731-0.852-0.9-1.076-0.288-0.415-0.75-1.229-0.556-1.962 0.134-0.508 0.58-0.932 1.325-1.258 1.915-0.84 4.056-2.047 3.614-3.947-0.073-0.313-0.207-0.569-0.37-0.778 1.017 0.085 2.209 0.419 2.455 1.487 0.199 0.865-0.158 1.751-0.422 2.214-0.181 0.3-0.772 1.123-1.376 1.403-0.235 0.109-0.337 0.388-0.228 0.623 0.079 0.171 0.249 0.271 0.426 0.271 0.066 0 0.133-0.014 0.197-0.044 0.492-0.229 0.928-0.653 1.246-1.030 0.013 0.002 0.026 0.006 0.039 0.007 0.17 0.022 0.365 0.023 0.571 0.025 0.947 0.008 1.636 0.078 1.876 0.911 0.201 0.699 0.006 1.315-0.19 1.646-0.097 0.131-0.636 0.839-1.333 1.411-0.2 0.164-0.229 0.46-0.065 0.66 0.093 0.113 0.227 0.172 0.363 0.172 0.105 0 0.21-0.035 0.297-0.106 0.349-0.286 0.658-0.598 0.905-0.87 0.041 0.009 0.082 0.015 0.125 0.017 0.683 0.025 1.555 0.235 1.831 1.090 0.317 0.985 0.145 1.704-0.528 2.193z"></path>
</symbol>
  </defs>
</svg>